<?xml version="1.0" encoding="UTF-8" standalone="no"?>
<svg
   xmlns:dc="http://purl.org/dc/elements/1.1/"
   xmlns:cc="http://creativecommons.org/ns#"
   xmlns:rdf="http://www.w3.org/1999/02/22-rdf-syntax-ns#"
   xmlns:svg="http://www.w3.org/2000/svg"
   xmlns="http://www.w3.org/2000/svg"
   xmlns:sodipodi="http://sodipodi.sourceforge.net/DTD/sodipodi-0.dtd"
   xmlns:inkscape="http://www.inkscape.org/namespaces/inkscape"
   viewBox="0 0 1000 1000"
   width="26"
   height="26">
<g fill="#ffffff">	
  <path
     d="m 786,441 0,177 q 0,67 -47,114 -47,47 -114,47 l -464,0 Q 94,779 47,732 0,685 0,618 L 0,154 Q 0,88 47,41 94,-6 161,-7 l 464,0 q 35,0 65,14 9,4 10,13 2,10 -5,16 l -27,28 q -6,5 -13,5 -1,0 -5,-1 -13,-3 -25,-3 l -464,0 q -37,0 -63,26 -26,26 -27,63 l 0,464 q 0,37 27,63 27,26 63,27 l 464,0 q 37,0 63,-27 26,-27 26,-63 l 0,-141 q 0,-8 5,-13 l 36,-35 q 6,-6 13,-6 3,0 7,2 11,4 11,16 z M 915,168 460,622 q -13,14 -31,14 -18,0 -32,-14 L 157,382 q -14,-13 -14,-31 0,-18 14,-32 l 61,-62 q 14,-13 32,-13 18,0 32,13 L 429,404 790,43 q 13,-13 31,-13 18,0 32,13 l 62,61 q 13,14 13,32 0,18 -13,32 z"/>
</g>
</svg>
